<?xml version="1.0" encoding="iso-8859-1"?>
<!-- Generator: Adobe Illustrator 19.0.0, SVG Export Plug-In . SVG Version: 6.00 Build 0)  -->
<svg version="1.1" id="Capa_1" xmlns="http://www.w3.org/2000/svg" xmlns:xlink="http://www.w3.org/1999/xlink" x="0px" y="0px"
	 viewBox="0 0 55 55" style="enable-background:new 0 0 55 55;" xml:space="preserve">
<g>
	<g>
		<path d="M27.5,0C14.378,0,8,8.995,8,27.5c0,11.139,6.354,20.732,12.779,25.053l-0.032,0.104l0.349,0.109
			C23.322,54.201,25.543,55,27.5,55C35.201,55,47,42.68,47,27.5C47,8.995,40.622,0,27.5,0z M27,25.646L25.811,20h2.377L27,25.646z
			 M28.61,18H25.39l-1.061-5.042h5.342L28.61,18z M23.458,18.531l-2.924,2.192c-0.873-1.678-1.648-3.353-2.321-4.934l4.191-2.265
			L23.458,18.531z M23.913,20.69l1.642,7.797c-1.506-1.811-2.859-3.871-4.056-5.987L23.913,20.69z M30.105,20.605l2.902,1.934
			c-1.743,3.055-3.427,5.122-4.657,6.402L30.105,20.605z M33.959,20.771l-3.411-2.274l1-4.752l4.56,2.191
			C35.417,17.744,34.69,19.339,33.959,20.771z M36.791,14.045l-4.817-2.314l1.835-8.719c1.969,0.701,3.667,1.785,5.111,3.234
			C38.306,9.145,37.581,11.739,36.791,14.045z M31.882,2.458l-1.79,8.501h-6.184l-1.737-8.25C23.788,2.25,25.553,2,27.5,2
			C29.071,2,30.526,2.16,31.882,2.458z M20.269,3.382l1.706,8.102l-4.527,2.447c-1.223-3.08-2.005-5.571-2.321-6.633
			C16.543,5.564,18.255,4.259,20.269,3.382z M13.68,9.398c1.532,4.781,5.772,16.37,12.635,22.83C26.505,32.408,26.752,32.5,27,32.5
			c0.192,0,0.385-0.055,0.554-0.168c0.368-0.246,8.783-6.042,12.994-24.167C43.526,12.394,45,18.812,45,27.5
			c0,6.879-2.51,12.892-5.795,17.35L27.659,34.748c-0.377-0.329-0.929-0.317-1.303,0.003l-0.012-0.004l-0.005,0.015
			c-0.014,0.013-0.032,0.018-0.046,0.031l-8.481,8.481l-0.724,0.651l0.034,0.038l-1.137,1.137C12.608,40.619,10,34.51,10,27.5
			C10,19.609,11.226,13.606,13.68,9.398z M28.296,43.5h-2.592L27,39.353L28.296,43.5z M28.799,38.403l3.154,2.759L30.079,42.5
			L28.799,38.403z M23.919,42.505l-1.255-1.255l2.396-2.396L23.919,42.505z M21.25,42.664l1.996,1.996l-0.723,2.315l-2.645-2.938
			L21.25,42.664z M25.079,45.5h3.842l0.781,2.5h-5.404L25.079,45.5z M30.707,44.51l2.792-1.994l1.371,1.2l-3.361,3.361L30.707,44.51
			z M17.248,46.666l1.214-1.214l3.367,3.742l-0.415,1.327C20.013,49.51,18.592,48.213,17.248,46.666z M23.161,51.638L23.673,50
			h6.654l0.65,2.081C29.714,52.678,28.525,53,27.5,53C26.244,53,24.745,52.521,23.161,51.638z M32.763,51.087l-0.58-1.855
			l4.196-4.196l1.582,1.384C36.294,48.383,34.497,49.968,32.763,51.087z"/>
		<path d="M17.5,40.5c0.209,0,0.42-0.065,0.6-0.2l8-6c0.269-0.202,0.418-0.525,0.397-0.861c-0.021-0.335-0.209-0.639-0.5-0.806
			c-0.101-0.058-10.119-5.922-12.012-16.804c-0.08-0.458-0.464-0.8-0.927-0.827c-0.461-0.027-0.885,0.269-1.017,0.714
			c-0.169,0.572-4.053,14.138,4.697,24.432C16.935,40.379,17.216,40.5,17.5,40.5z M13.224,20.547
			c2.67,6.962,8.069,11.316,10.526,13.015l-6.08,4.56C13.055,32.159,12.793,25.002,13.224,20.547z"/>
		<path d="M28.4,34.3l8,6c0.18,0.135,0.39,0.2,0.6,0.2c0.284,0,0.565-0.121,0.762-0.353c8.75-10.294,4.867-23.859,4.697-24.432
			c-0.132-0.445-0.562-0.74-1.017-0.714c-0.463,0.027-0.848,0.37-0.927,0.827C38.622,26.71,28.604,32.574,28.503,32.632
			c-0.292,0.167-0.48,0.471-0.5,0.806C27.982,33.774,28.131,34.098,28.4,34.3z M41.276,20.547
			c0.431,4.455,0.169,11.612-4.446,17.575l-6.08-4.56C33.206,31.863,38.606,27.51,41.276,20.547z"/>
	</g>
</g>
<g>
</g>
<g>
</g>
<g>
</g>
<g>
</g>
<g>
</g>
<g>
</g>
<g>
</g>
<g>
</g>
<g>
</g>
<g>
</g>
<g>
</g>
<g>
</g>
<g>
</g>
<g>
</g>
<g>
</g>
</svg>
